<svg width="46" height="46" viewBox="0 0 46 46" fill="none" xmlns="http://www.w3.org/2000/svg">
<g clip-path="url(#clip0)">
<path fill-rule="evenodd" clip-rule="evenodd" d="M38.9415 7.03949C34.7116 2.8247 29.0863 0.502369 23.0931 0.5C10.7442 0.5 0.693772 10.5025 0.68883 22.7971C0.687183 26.7271 1.71888 30.5634 3.67936 33.9449L0.500977 45.5L12.3778 42.3992C15.6501 44.1756 19.3344 45.1118 23.0841 45.1134H23.0933C35.4409 45.1134 45.4923 35.1096 45.4973 22.8149C45.4996 16.8567 43.1714 11.2543 38.9415 7.03949ZM23.0933 41.3472H23.0857C19.7443 41.346 16.467 40.4525 13.608 38.7639L12.928 38.3622L5.88022 40.2023L7.76144 33.3631L7.31862 32.6619C5.4546 29.711 4.47006 26.3004 4.47153 22.7985C4.47562 12.5797 12.8292 4.26608 23.1007 4.26608C28.0744 4.26796 32.7499 6.19832 36.2656 9.7015C39.7814 13.2047 41.7165 17.8612 41.7146 22.8135C41.7103 33.033 33.3569 41.3472 23.0933 41.3472ZM33.3075 27.4666C32.7477 27.1877 29.9955 25.8397 29.4823 25.6538C28.9692 25.4679 28.596 25.3749 28.2228 25.9327C27.8496 26.4905 26.7768 27.7455 26.4502 28.1173C26.1237 28.4892 25.7972 28.5357 25.2373 28.2568C24.6775 27.9779 22.8738 27.3896 20.7355 25.4914C19.0715 24.0141 17.9479 22.1894 17.6213 21.6316C17.2948 21.0738 17.5866 20.7722 17.8668 20.4945C18.1186 20.2449 18.4266 19.8438 18.7065 19.5184C18.9864 19.193 19.0797 18.9606 19.2663 18.5888C19.4529 18.217 19.3596 17.8916 19.2197 17.6127C19.0797 17.3338 17.9602 14.5914 17.4936 13.4758C17.0393 12.3894 16.5777 12.5364 16.2341 12.5194C15.908 12.5032 15.5344 12.4998 15.1612 12.4998C14.788 12.4998 14.1816 12.6392 13.6684 13.197C13.1553 13.7548 11.7092 15.1027 11.7092 17.8451C11.7092 20.5875 13.7151 23.2368 13.995 23.6087C14.2749 23.9806 17.9424 29.6084 23.558 32.0218C24.8936 32.5958 25.9363 32.9386 26.7493 33.1955C28.0904 33.6194 29.3107 33.5596 30.2753 33.4162C31.3508 33.2562 33.5873 32.0683 34.0539 30.7668C34.5204 29.4653 34.5204 28.3498 34.3804 28.1174C34.2405 27.885 33.8673 27.7455 33.3075 27.4666Z" fill="white"/>
</g>
<defs>
<clipPath id="clip0">
<rect width="45" height="45" fill="white" transform="translate(0.5 0.5)"/>
</clipPath>
</defs>
</svg>
